<?xml version="1.0" encoding="UTF-8"?>
<svg id="Capa_1" data-name="Capa 1" xmlns="http://www.w3.org/2000/svg" viewBox="0 0 984.48 956.65">
  <defs>
    <style>
      .cls-1, .cls-2 {
        fill: #8f8ec4;
      }

      .cls-3 {
        fill: #f5b9cc;
      }

      .cls-4 {
        font-family: PickleJuicePersonalUseOnly, PickleJuicePersonalUseOnly;
        font-size: 833.17px;
      }

      .cls-4, .cls-2, .cls-5 {
        stroke-miterlimit: 10;
      }

      .cls-4, .cls-5 {
        fill: none;
        stroke: #fff;
        stroke-width: 13px;
      }

      .cls-2 {
        stroke: #8f8dc4;
        stroke-width: 5px;
      }
    </style>
  </defs>
  <g>
    <text class="cls-4" transform="translate(60.78 742) rotate(-4.42) scale(1.16 1)"><tspan x="0" y="0">P</tspan></text>
    <path class="cls-5" d="m615.06,723.8c-.74,5.49-4.11,10.9-10.12,16.21-6.02,5.31-13.13,8.92-21.34,10.82-8.22,1.9-16.77,1.46-25.68-1.31-8.9-2.78-16.6-9.29-23.07-19.53l-48.04-490.44c-.31-8.56,1.27-15.71,4.74-21.47,3.46-5.75,7.89-10,13.27-12.78,5.38-2.76,11.26-4.11,17.66-4.04,6.4.08,12.58,1.87,18.54,5.37,5.97,3.51,11.14,8.56,15.52,15.15,4.38,6.6,7.3,15.02,8.77,25.28,4.58,37.99,8.81,77.03,12.72,117.12,3.89,40.09,7.83,80.52,11.79,121.27,3.96,40.76,7.95,81.18,11.98,121.26,4.02,40.08,8.45,79.1,13.27,117.07Z"/>
    <path class="cls-5" d="m641.87,414.03c5.5-5.82,12.91-10.48,22.24-13.97,9.32-3.49,18.8-5.14,28.43-4.95,9.63.2,18.49,2.43,26.59,6.7,8.1,4.27,13.98,11.06,17.65,20.38l1.83,300.42c-2.75,9.71-8.48,16.79-17.19,21.25-8.71,4.47-18.11,6.7-28.2,6.7s-19.8-2.04-29.11-6.11c-9.33-4.08-16.13-9.61-20.4-16.59l-1.83-313.81Zm55.02-43.08c-12.23-.38-22.09-3.3-29.57-8.73-7.49-5.43-12.92-12.13-16.28-20.09-3.36-7.95-4.67-16.59-3.9-25.91.76-9.32,3.44-17.95,8.02-25.91,4.58-7.95,10.92-14.75,19.03-20.38,8.1-5.62,17.8-8.83,29.11-9.61,7.64.39,13.9,3.2,18.8,8.44,4.89,5.24,8.48,11.84,10.77,19.8,2.29,7.96,3.21,16.59,2.75,25.91-.46,9.32-2.15,18.05-5.04,26.2-2.91,8.15-7.19,15.04-12.84,20.67-5.66,5.63-12.61,8.83-20.86,9.61Z"/>
    <path class="cls-5" d="m778.11,724.47c-6.24-9.83-9.93-19.71-11.07-29.64-1.16-9.92-.79-19.33,1.09-28.22,1.87-8.89,4.75-16.88,8.63-23.99,3.87-7.1,7.71-12.75,11.53-16.94.95,3.13,4.86,6.41,11.74,9.85,6.87,3.44,14.94,6.52,24.2,9.24,9.25,2.72,18.79,4.37,28.6,4.96,9.8.59,18.05-.4,24.7-2.98,6.66-2.58,10.82-7.25,12.48-14.01,1.66-6.76-.93-16.62-7.77-29.57-1.3-2.74-5.14-5.64-11.51-8.68-6.38-3.04-13.84-6.59-22.39-10.65-8.55-4.06-17.52-8.81-26.89-14.24-9.38-5.43-17.88-12.02-25.5-19.74-7.63-7.73-13.63-16.59-18-26.58-4.37-9.99-5.9-21.76-4.6-35.33,2.05-17.43,8.39-33.21,19.02-47.36,10.62-14.14,24.06-25.42,40.33-33.82,16.26-8.4,34.73-13.06,55.42-13.99,20.68-.93,41.94,3.1,63.77,12.09,5.65,4.78,9.06,12.03,10.22,21.76,1.15,9.73.87,19.33-.85,28.81-1.72,9.48-4.35,17.58-7.87,24.3-3.53,6.72-7.31,9.46-11.35,8.21-8.41-2.89-15.66-4.3-21.76-4.24-6.1.07-11.11.84-15.04,2.31-3.93,1.47-6.77,3.45-8.51,5.94-1.75,2.49-2.64,4.9-2.69,7.22.22,5.44,1.4,9.74,3.54,12.88,2.13,3.15,5.04,5.93,8.72,8.33,3.67,2.41,7.93,5.02,12.79,7.83,4.85,2.82,10.11,6.23,15.79,10.23,14.68,10.79,25.43,23.14,32.26,37.06,6.83,13.92,10.42,28.27,10.8,43.03.37,14.76-2.22,29.46-7.77,44.1-5.56,14.64-13.12,28.07-22.68,40.29-9.57,12.23-20.88,22.57-33.92,31.04-13.05,8.47-26.97,14.2-41.77,17.19-14.8,2.99-30.2,2.48-46.2-1.54-16.01-4.02-31.84-12.4-47.49-25.15Z"/>
    <g>
      <path class="cls-5" d="m193.16,540.34c2.21,1.97-12.34,12.96-15.53,33.58-3.44,22.23,8.63,40.82,12.43,46.18,11.41,16.09,26.58,22.67,32.7,24.94,46.27,24.86,92.54,49.71,138.81,74.57,25.92-49.39,51.83-98.78,77.75-148.17,5.02-10.32,0-20.98-6.96-23.1-5.66-1.72-12.89,4.5-15.84,7.17-22.99,20.77-54.64,95.59-65.34,121.64-45.46-23.5-90.93-47-136.39-70.5-4.41-3.44-15.29-12.9-19.5-28.92-4.76-18.1.62-37.56,11.61-49.08,23.64-24.76,73.91-14.84,98.69,10.13,18.17,18.31,22.61,44.67,18.54,47.1-3.79,2.26-15.12-16.02-44.2-30.99-17.2-8.86-23.75-7.87-27.22-5.39-5.09,3.64-5.12,11.65-5.12,13.75-.06,26.29,71.94,54.97,89.48,61.72,12.17-36.52,26.18-64.36,37.19-83.55,9.22-16.07,15.52-24.64,26.47-30.26,17.91-9.19,42.45-7.29,60.53,5.69,18.87,13.55,28.84,37.81,24.48,57.41-.84,3.78-2.07,6.8-3.05,8.88-21.69,45.86-37.41,68.42-37.41,68.42-16.93,23.37-39.91,59.82-71.56,113.57-47.8-28.95-83.53-43.18-108.3-50.84,0,0-34.09-10.55-76.76-37.92-2.48-1.59-7.92-5.17-13.51-11.31-11.35-12.45-14.95-26.22-16.68-33.18-7.02-28.21,1.84-51.81,5.4-60.49.9-2.18,1.68-4.11,2.73-6.14,8.66-16.72,24.33-26.87,26.54-24.89Z"/>
      <path class="cls-5" d="m331.94,579.13c-.18-8.16,8.21-71.95,61.37-91.74,30.25-11.26,71.02-6.92,88.24,15.76,9.06,11.93,11.97,29.42,8.63,31.26-2.8,1.55-7.97-9-21.03-18.27-19.03-13.49-44.97-17.35-66.37-10.61-2.46.78-11.17,3.68-20.73,10.4-12.36,8.68-18.87,18.63-24.34,27.16-4.98,7.77-11.64,20.03-16.02,36.59-.9,3.51-4.33,5.21-6.74,4.31-1.72-.64-2.94-2.61-2.99-4.87Z"/>
    </g>
  </g>
  <path class="cls-1" d="m615.06,723.8c-.74,5.49-4.11,10.9-10.12,16.21-6.02,5.31-13.13,8.92-21.34,10.82-8.22,1.9-16.77,1.46-25.68-1.31-8.9-2.78-16.6-9.29-23.07-19.53l-48.04-490.44c-.31-8.56,1.27-15.71,4.74-21.47,3.46-5.75,7.89-10,13.27-12.78,5.38-2.76,11.26-4.11,17.66-4.04,6.4.08,12.58,1.87,18.54,5.37,5.97,3.51,11.14,8.56,15.52,15.15,4.38,6.6,7.3,15.02,8.77,25.28,4.58,37.99,8.81,77.03,12.72,117.12,3.89,40.09,7.83,80.52,11.79,121.27,3.96,40.76,7.95,81.18,11.98,121.26,4.02,40.08,8.45,79.1,13.27,117.07Z"/>
  <path class="cls-1" d="m641.87,414.03c5.5-5.82,12.91-10.48,22.24-13.97,9.32-3.49,18.8-5.14,28.43-4.95,9.63.2,18.49,2.43,26.59,6.7,8.1,4.27,13.98,11.06,17.65,20.38l1.83,300.42c-2.75,9.71-8.48,16.79-17.19,21.25-8.71,4.47-18.11,6.7-28.2,6.7s-19.8-2.04-29.11-6.11c-9.33-4.08-16.13-9.61-20.4-16.59l-1.83-313.81Zm55.02-43.08c-12.23-.38-22.09-3.3-29.57-8.73-7.49-5.43-12.92-12.13-16.28-20.09-3.36-7.95-4.67-16.59-3.9-25.91.76-9.32,3.44-17.95,8.02-25.91,4.58-7.95,10.92-14.75,19.03-20.38,8.1-5.62,17.8-8.83,29.11-9.61,7.64.39,13.9,3.2,18.8,8.44,4.89,5.24,8.48,11.84,10.77,19.8,2.29,7.96,3.21,16.59,2.75,25.91-.46,9.32-2.15,18.05-5.04,26.2-2.91,8.15-7.19,15.04-12.84,20.67-5.66,5.63-12.61,8.83-20.86,9.61Z"/>
  <path class="cls-1" d="m778.11,724.47c-6.24-9.83-9.93-19.71-11.07-29.64-1.16-9.92-.79-19.33,1.09-28.22,1.87-8.89,4.75-16.88,8.63-23.99,3.87-7.1,7.71-12.75,11.53-16.94.95,3.13,4.86,6.41,11.74,9.85,6.87,3.44,14.94,6.52,24.2,9.24,9.25,2.72,18.79,4.37,28.6,4.96,9.8.59,18.05-.4,24.7-2.98,6.66-2.58,10.82-7.25,12.48-14.01,1.66-6.76-.93-16.62-7.77-29.57-1.3-2.74-5.14-5.64-11.51-8.68-6.38-3.04-13.84-6.59-22.39-10.65-8.55-4.06-17.52-8.81-26.89-14.24-9.38-5.43-17.88-12.02-25.5-19.74-7.63-7.73-13.63-16.59-18-26.58-4.37-9.99-5.9-21.76-4.6-35.33,2.05-17.43,8.39-33.21,19.02-47.36,10.62-14.14,24.06-25.42,40.33-33.82,16.26-8.4,34.73-13.06,55.42-13.99,20.68-.93,41.94,3.1,63.77,12.09,5.65,4.78,9.06,12.03,10.22,21.76,1.15,9.73.87,19.33-.85,28.81-1.72,9.48-4.35,17.58-7.87,24.3-3.53,6.72-7.31,9.46-11.35,8.21-8.41-2.89-15.66-4.3-21.76-4.24-6.1.07-11.11.84-15.04,2.31-3.93,1.47-6.77,3.45-8.51,5.94-1.75,2.49-2.64,4.9-2.69,7.22.22,5.44,1.4,9.74,3.54,12.88,2.13,3.15,5.04,5.93,8.72,8.33,3.67,2.41,7.93,5.02,12.79,7.83,4.85,2.82,10.11,6.23,15.79,10.23,14.68,10.79,25.43,23.14,32.26,37.06,6.83,13.92,10.42,28.27,10.8,43.03.37,14.76-2.22,29.46-7.77,44.1-5.56,14.64-13.12,28.07-22.68,40.29-9.57,12.23-20.88,22.57-33.92,31.04-13.05,8.47-26.97,14.2-41.77,17.19-14.8,2.99-30.2,2.48-46.2-1.54-16.01-4.02-31.84-12.4-47.49-25.15Z"/>
  <path class="cls-2" d="m278.45,195.34c16.38,16.53,28.52,35.26,36.44,56.17,7.89,20.92,12.42,42.68,13.54,65.27,1.12,22.6-.43,45.25-4.65,67.97-4.23,22.72-10.28,43.86-18.21,63.42-7.92,19.56-17.96,38.29-30.1,56.16-12.16,17.88-26.16,33.89-42.05,48.04-15.89,14.14-33.52,26.14-52.9,35.95-19.38,9.83-40.24,16.46-62.62,19.92,2.79,19.89,6.19,39.43,10.2,58.64,3.99,19.22,9.22,38.04,15.69,56.49,2.59,8.99,1.36,15.69-3.63,20.09-5.01,4.41-11.27,6.76-18.8,7.05-7.53.29-15.06-1.42-22.57-5.14-7.53-3.72-12.53-9.49-15.03-17.35-6.6-20.16-11.95-40.55-16.06-61.2-4.11-20.63-7.64-41.75-10.56-63.35-4.65-3.09-8.39-6.81-11.25-11.19-2.85-4.37-4.6-8.69-5.25-12.94-.64-4.26-.17-8.3,1.41-12.17,1.6-3.86,4.85-6.55,9.76-8.08-.53-6.85-1.21-13.54-2.03-20.08-.83-6.53-1.5-13.23-2.03-20.09-2.79-27.91-4.8-55.89-6.02-83.94-1.22-28.03-1.37-56.16-.39-84.37,1.39-22.5,3.54-45.62,6.42-69.4,2.88-23.76,9.79-46.11,20.76-67.06,8.15-16.69,19.13-31.19,32.97-43.46,13.82-12.27,31.43-18.65,52.78-19.16,23.8-1.26,46.51,1.57,68.13,8.51,21.61,6.94,40.29,18.71,56.04,35.29Zm-12.6,154.28c1.72-18.5,1.29-38.28-1.29-59.33-2.57-21.03-10.12-39.4-22.66-55.08-4.86-5.93-10.95-11.35-18.24-16.25-7.31-4.88-14.99-8.74-23.07-11.56-8.09-2.82-16.54-4.32-25.35-4.49-8.83-.18-17.18,1.76-25.03,5.81-7.29,3.45-13.33,8.79-18.11,16.04-4.79,7.26-8.73,15.18-11.85,23.74-3.11,8.57-5.58,17.37-7.39,26.41-1.82,9.05-3.11,16.75-3.87,23.12-4.18,27.32-6.5,54.33-6.94,81.07-.45,26.74.07,53.82,1.57,81.26,1.75,30.87,4.16,61.99,7.22,93.32,24.12-5.31,45.39-14.99,63.81-29.05,18.41-14.05,34.11-30.64,47.11-49.72,12.99-19.1,23.2-39.55,30.64-61.37,7.43-21.81,11.91-43.13,13.45-63.91Z"/>
  <g>
    <path class="cls-3" d="m179.59,538.21c2.36,2.1-13.16,13.82-16.56,35.81-3.67,23.71,9.21,43.54,13.26,49.25,12.17,17.16,28.35,24.18,34.87,26.6,49.34,26.51,98.69,53.02,148.04,79.52,27.64-52.67,55.28-105.34,82.92-158.01,5.36-11.01,0-22.38-7.42-24.63-6.04-1.84-13.74,4.8-16.89,7.64-24.52,22.15-58.27,101.94-69.69,129.72-48.48-25.06-96.97-50.12-145.45-75.19-4.7-3.67-16.3-13.76-20.8-30.84-5.08-19.3.66-40.06,12.39-52.34,25.21-26.4,78.82-15.83,105.25,10.81,19.38,19.52,24.12,47.64,19.77,50.23-4.04,2.41-16.13-17.09-47.14-33.05-18.35-9.45-25.33-8.4-29.03-5.75-5.43,3.89-5.46,12.43-5.46,14.66-.07,28.04,76.72,58.62,95.43,65.82,12.98-38.95,27.92-68.64,39.66-89.1,9.83-17.13,16.55-26.28,28.23-32.27,19.1-9.8,45.27-7.77,64.55,6.07,20.13,14.45,30.75,40.32,26.11,61.22-.9,4.03-2.21,7.26-3.25,9.47-23.13,48.91-39.89,72.96-39.89,72.96-18.05,24.92-42.56,63.8-76.32,121.12-50.97-30.87-89.08-46.05-115.5-54.22,0,0-36.35-11.25-81.86-40.44-2.64-1.69-8.44-5.51-14.41-12.06-12.11-13.28-15.94-27.96-17.79-35.39-7.48-30.08,1.96-55.25,5.76-64.51.95-2.33,1.79-4.38,2.91-6.55,9.24-17.84,25.94-28.65,28.31-26.55Z"/>
    <path class="cls-3" d="m327.58,579.58c-.19-8.7,8.75-76.73,65.44-97.84,32.26-12.01,75.74-7.38,94.11,16.8,9.66,12.72,12.77,31.37,9.2,33.34-2.99,1.65-8.5-9.6-22.43-19.48-20.3-14.39-47.95-18.51-70.78-11.31-2.62.83-11.91,3.92-22.11,11.09-13.18,9.26-20.13,19.87-25.96,28.96-5.31,8.29-12.41,21.36-17.09,39.02-.96,3.74-4.61,5.56-7.19,4.6-1.84-.68-3.14-2.78-3.19-5.19Z"/>
  </g>
</svg>